<svg version="1.1" id="Layer_1" xmlns="http://www.w3.org/2000/svg" xmlns:xlink="http://www.w3.org/1999/xlink" x="0px" y="0px"
	 width="100%" viewBox="0 0 546 549" enable-background="new 0 0 546 549" xml:space="preserve">
<path fill="#FBE84E" opacity="1.000000" stroke="none" 
	d="
M291.000000,550.000000 
	C194.022018,550.000000 97.544037,550.000000 1.033027,550.000000 
	C1.033027,367.063782 1.033027,184.127548 1.033027,1.095659 
	C182.894653,1.095659 364.789368,1.095659 546.842041,1.095659 
	C546.842041,183.999893 546.842041,366.999939 546.842041,550.000000 
	C461.794189,550.000000 376.647095,550.000000 291.000000,550.000000 
M449.768829,288.865173 
	C447.262909,262.017273 434.019165,240.886322 414.535950,223.187088 
	C396.150970,206.485550 374.691284,194.985916 351.364838,186.877335 
	C306.353943,171.230927 260.269440,168.311493 213.499893,176.362213 
	C179.676071,182.184509 147.951874,193.711563 119.967278,214.116180 
	C101.339333,227.698502 85.439743,244.040405 78.090454,266.277344 
	C65.058998,305.706940 72.373322,341.983398 99.144936,373.672699 
	C122.224632,400.991882 152.981888,415.973022 186.933563,425.000641 
	C219.622971,433.692627 252.927185,435.581940 286.506775,432.786316 
	C318.258453,430.142883 349.039032,423.322906 377.348877,408.148499 
	C424.469849,382.891174 453.113434,346.053711 449.768829,288.865173 
M360.733307,449.251892 
	C336.572632,457.560333 311.591797,461.823273 286.275208,463.796906 
	C286.275208,472.455933 286.275208,480.558716 286.275208,488.792938 
	C287.520905,488.792938 288.499756,488.870026 289.463379,488.781738 
	C313.229034,486.603882 336.619537,482.442261 359.291168,474.867218 
	C399.737000,461.353516 435.152527,440.128845 462.141541,406.423981 
	C492.388641,368.650299 503.552399,325.274780 497.627625,277.723602 
	C493.339813,243.310516 475.594177,215.624283 449.908020,193.042480 
	C410.292297,158.214676 362.933716,140.527679 311.625458,132.095215 
	C300.270172,130.228989 300.216797,130.553772 300.216797,118.892006 
	C300.216797,110.125259 300.216797,101.358513 300.216797,91.980438 
	C329.122955,91.980438 357.327637,91.980438 385.429199,91.980438 
	C385.429199,86.960541 385.429199,82.575729 385.429199,78.006630 
	C354.531097,78.006630 324.046173,77.964890 293.561615,78.049232 
	C288.690369,78.062706 286.051727,80.970024 286.028107,86.072342 
	C285.951691,102.567253 285.950989,119.063019 286.032410,135.557907 
	C286.058685,140.884506 288.437988,143.316208 293.800934,144.078705 
	C300.718018,145.062195 307.668182,145.854004 314.548248,147.049591 
	C351.834564,153.529007 386.872162,166.002457 418.614899,186.904785 
	C443.578125,203.342880 464.943634,223.621552 475.655518,251.990753 
	C494.008789,300.597443 485.895203,346.088196 454.355347,386.937286 
	C430.501984,417.831116 397.979309,436.603912 360.733307,449.251892 
M52.536011,234.116776 
	C64.420860,216.782288 80.056244,203.439758 97.597641,192.231827 
	C124.988373,174.730743 155.082840,163.294205 185.706528,152.941147 
	C200.634277,147.894470 215.548538,142.511093 229.803314,135.854736 
	C243.873718,129.284439 248.760300,115.532211 244.065323,100.935661 
	C240.581589,90.104820 231.763245,85.555290 221.769730,83.081779 
	C197.131729,76.983566 172.550766,78.636185 148.192505,84.860115 
	C141.406052,86.594177 134.850357,89.231361 127.764282,91.595879 
	C130.928802,96.437706 133.366028,100.166763 135.833572,103.942215 
	C156.567505,95.481949 177.887955,92.610229 199.688431,94.199593 
	C207.684937,94.782578 215.774292,96.742249 223.369751,99.376099 
	C229.993271,101.672920 232.129486,107.183876 230.937973,113.967247 
	C230.033508,119.116295 226.376678,122.132851 221.988800,123.945869 
	C210.942245,128.510178 199.904617,133.192535 188.572601,136.950729 
	C159.507233,146.590103 130.728256,156.848999 103.908661,171.877029 
	C78.044640,186.369614 54.926380,204.020630 38.679405,229.419296 
	C27.126343,247.480026 21.047050,267.287018 20.012108,288.671844 
	C19.804377,292.964172 21.147610,296.886658 25.789604,297.125854 
	C35.180000,297.609741 44.612827,297.270203 54.177658,297.270203 
	C54.177658,292.436798 54.177658,288.018188 54.177658,283.071533 
	C47.628540,283.071533 41.380203,283.071533 35.145424,283.071533 
	C35.228058,269.472473 41.624874,251.431244 52.536011,234.116776 
z"/>
<path fill="#333774" opacity="1.000000" stroke="none" 
	d="
M449.800110,289.332306 
	C453.113434,346.053711 424.469849,382.891174 377.348877,408.148499 
	C349.039032,423.322906 318.258453,430.142883 286.506775,432.786316 
	C252.927185,435.581940 219.622971,433.692627 186.933563,425.000641 
	C152.981888,415.973022 122.224632,400.991882 99.144936,373.672699 
	C72.373322,341.983398 65.058998,305.706940 78.090454,266.277344 
	C85.439743,244.040405 101.339333,227.698502 119.967278,214.116180 
	C147.951874,193.711563 179.676071,182.184509 213.499893,176.362213 
	C260.269440,168.311493 306.353943,171.230927 351.364838,186.877335 
	C374.691284,194.985916 396.150970,206.485550 414.535950,223.187088 
	C434.019165,240.886322 447.262909,262.017273 449.800110,289.332306 
M170.705276,395.877045 
	C215.683167,411.855896 261.746399,414.826569 308.552704,406.693756 
	C341.079193,401.042175 371.531525,389.841583 398.235321,369.889252 
	C416.769257,356.041199 431.431549,339.154663 438.301147,316.491150 
	C440.912476,307.876099 441.947205,299.139343 440.833496,290.110901 
	C424.086578,292.853058 377.636780,308.040405 369.490570,313.348206 
	C374.840546,327.957306 365.663025,340.252136 348.364502,340.598389 
	C345.688446,352.816650 337.735565,358.748413 325.506165,359.746277 
	C324.278473,359.846466 322.796387,361.265289 322.081604,362.460480 
	C318.635895,368.221527 313.765259,372.467224 307.218628,373.224030 
	C301.432312,373.892914 296.559296,375.580688 291.421539,378.376556 
	C283.791260,382.528809 275.498596,380.698975 267.805847,377.303009 
	C265.082428,376.100769 263.173889,376.169128 260.633026,377.953217 
	C253.866913,382.704254 246.226273,383.729431 238.916367,379.820282 
	C234.403580,377.407013 230.760101,373.368164 226.107437,369.551361 
	C217.862091,370.810699 210.351669,367.727997 204.453812,360.234680 
	C203.566559,359.107452 201.498016,358.468689 199.935043,358.387085 
	C190.773117,357.908722 184.075363,353.652863 180.120193,345.470398 
	C178.891037,342.927521 177.695068,341.911316 174.734131,341.678497 
	C163.654968,340.807526 155.525269,331.838837 156.867676,321.141388 
	C157.525116,315.902283 155.400528,314.071167 151.518524,312.160706 
	C133.764725,303.423431 114.828430,298.375671 95.671608,293.988647 
	C90.920616,292.900635 86.144096,291.924225 81.117020,290.839935 
	C81.015549,292.521423 80.929543,293.510193 80.899971,294.500671 
	C80.160934,319.260376 90.699722,339.308197 107.326553,356.597412 
	C124.880325,374.850525 146.516617,386.735809 170.705276,395.877045 
M327.901489,288.591827 
	C314.968292,277.842255 302.210754,266.872070 289.056366,256.400391 
	C273.497559,244.014664 266.398499,244.025040 250.300720,255.617004 
	C244.091110,260.088562 238.221024,265.044281 231.905197,269.352783 
	C221.931686,276.156464 211.167908,275.875824 200.494949,271.342041 
	C191.565155,267.548767 190.353729,260.761078 196.813019,253.660767 
	C201.370773,248.650726 205.909897,243.623734 210.457336,238.604309 
	C207.751984,238.368866 205.538635,238.872894 203.390137,239.575241 
	C193.680222,242.749390 183.683319,243.721359 173.857010,241.179947 
	C156.837769,236.778214 140.030777,231.560394 123.077881,226.891327 
	C121.204109,226.375259 118.328590,226.432755 116.985863,227.530655 
	C104.851944,237.452087 95.017006,249.337402 88.401443,263.618958 
	C85.934784,268.943939 84.291496,274.650299 82.123802,280.591003 
	C87.282860,281.887390 91.437439,282.980042 95.615662,283.973236 
	C118.111374,289.320557 140.509079,294.930176 160.817825,306.605164 
	C161.725967,307.127197 163.455719,307.312592 164.236450,306.797119 
	C173.527756,300.662140 182.121490,302.016235 190.176086,308.947479 
	C202.297836,303.481628 210.226929,304.869720 219.734375,313.798767 
	C220.619751,314.630280 222.338165,314.983215 223.632385,314.908661 
	C238.876373,314.030731 246.451324,320.344727 248.352264,335.645630 
	C248.388031,335.933533 248.697647,336.187439 249.035538,336.688751 
	C256.493835,337.056580 262.579224,340.449249 266.860291,346.737915 
	C271.252014,353.189148 271.618683,360.318542 269.377777,367.494293 
	C277.669067,372.234344 284.997437,372.406708 290.019257,367.984222 
	C285.910767,363.420197 281.610657,359.008148 277.800995,354.206909 
	C276.524780,352.598511 275.314484,349.068268 276.129791,348.028595 
	C278.365234,345.178070 280.902466,347.524048 282.860321,349.289764 
	C287.433868,353.414642 291.913666,357.645081 296.379333,361.887604 
	C300.545959,365.845978 306.974976,365.742371 311.098999,361.572296 
	C314.446930,358.186890 314.042633,355.851471 309.197327,350.587433 
	C308.858887,350.219757 308.517609,349.854675 308.182648,349.483856 
	C303.493927,344.293427 298.667694,339.216125 294.225769,333.822388 
	C293.246796,332.633667 293.631317,330.321991 293.387939,328.527405 
	C295.217133,328.640869 297.153687,328.424438 298.841187,328.973450 
	C300.162567,329.403351 301.227753,330.725769 302.316681,331.747620 
	C307.902618,336.989441 313.408112,342.317963 319.042419,347.506866 
	C323.652985,351.752930 331.137146,350.884583 335.986969,345.695282 
	C339.897736,341.510803 339.440826,337.336639 334.341949,332.258514 
	C327.378815,325.323730 320.328033,318.476929 313.343933,311.563080 
	C312.287170,310.516937 310.995697,309.450623 310.531525,308.139252 
	C310.110596,306.950012 310.183075,304.935181 310.937134,304.167389 
	C311.664948,303.426361 313.758759,303.325653 314.864380,303.816956 
	C316.638824,304.605499 318.173431,306.022461 319.669647,307.333374 
	C327.436005,314.137878 335.128052,321.027313 342.906036,327.818420 
	C348.185120,332.427704 355.576294,331.946655 359.779755,326.841309 
	C363.133606,322.767853 362.025177,317.778687 356.552521,313.063507 
	C347.216888,305.020020 337.820068,297.047546 327.901489,288.591827 
M329.253174,277.244965 
	C339.262238,285.778015 349.352753,294.218597 359.221771,302.910675 
	C361.614410,305.017944 363.479279,304.995544 366.281372,303.946167 
	C382.444061,297.893250 398.621490,291.862244 414.942749,286.257233 
	C422.879120,283.531677 431.138824,281.747620 439.328552,279.516571 
	C439.079773,278.023743 438.999023,276.851044 438.683075,275.745575 
	C433.100067,256.210876 421.541138,240.639542 406.309448,227.633408 
	C405.206818,226.691895 402.327698,226.922256 400.714264,227.621811 
	C368.481018,241.597748 336.461151,242.342850 304.185913,227.403091 
	C285.645996,218.821213 266.201080,216.138565 246.495834,223.384583 
	C227.112549,230.512177 216.074203,247.452164 201.858429,261.946747 
	C204.207153,262.975616 205.747589,263.926239 207.420532,264.336243 
	C215.303833,266.268127 222.558624,264.919373 229.090591,259.935425 
	C236.627991,254.184387 243.991898,248.165131 251.847824,242.881958 
	C263.517639,235.033875 275.475922,234.891846 287.177094,243.195114 
	C289.212952,244.639771 291.310303,246.013763 293.236298,247.594528 
	C305.074371,257.310638 316.871368,267.076782 329.253174,277.244965 
M216.201447,226.681351 
	C221.762634,226.645691 226.137573,224.023087 230.633896,220.966980 
	C234.973785,218.017181 239.905731,215.680450 244.886032,213.975311 
	C267.099701,206.369843 288.564728,209.985123 309.382172,219.324356 
	C327.430695,227.421387 346.083160,230.957214 365.770782,227.984833 
	C375.900085,226.455551 385.666443,223.711792 395.939484,218.963531 
	C346.003601,185.553055 291.474091,176.813354 233.996536,182.178619 
	C196.231232,185.703827 160.739792,196.631378 129.107803,218.908447 
	C142.714844,223.405563 156.302383,227.156143 169.891830,230.899811 
	C180.780319,233.899414 191.544144,233.635178 202.303787,230.053482 
	C206.544189,228.641937 211.003098,227.886841 216.201447,226.681351 
M229.209534,323.936584 
	C226.182281,324.947998 222.833099,325.445068 220.203033,327.091095 
	C216.232971,329.575806 214.845749,329.531311 214.200409,325.135925 
	C213.475967,320.201660 211.384323,316.501617 206.304184,315.449738 
	C200.876022,314.325745 195.660339,314.751404 191.629227,319.314545 
	C190.594360,320.486023 189.515854,321.618927 188.475037,322.750366 
	C186.160873,319.359436 184.778885,315.282532 182.024841,313.857666 
	C179.083878,312.336090 174.544342,312.372894 171.248184,313.430176 
	C166.371140,314.994507 164.213364,321.332458 166.475098,325.993225 
	C167.565567,328.240417 169.691437,331.184143 171.731567,331.526001 
	C176.204239,332.275391 180.921173,331.566956 186.308701,331.434937 
	C186.308701,331.909607 186.243378,333.640442 186.319366,335.365112 
	C186.792862,346.111328 196.421967,351.676086 205.845886,346.669617 
	C209.572311,344.689880 210.874817,345.373749 210.966599,349.753632 
	C211.061127,354.265106 213.159103,357.276123 217.073837,359.237793 
	C220.741287,361.075562 224.238419,361.471100 227.840195,358.848022 
	C232.750381,355.272064 233.507599,355.647644 234.751160,361.594727 
	C236.369080,369.332123 243.260651,374.192627 250.488220,372.693878 
	C258.243164,371.085724 263.046936,363.725555 261.210907,356.264954 
	C259.315704,348.563934 252.117416,344.342438 244.309341,346.352936 
	C237.504501,348.105103 237.037781,347.637817 238.699432,340.735779 
	C240.847290,331.814056 238.249069,326.804749 229.209534,323.936584 
z"/>
<path fill="#313573" opacity="1.000000" stroke="none" 
	d="
M361.114258,449.147430 
	C397.979309,436.603912 430.501984,417.831116 454.355347,386.937286 
	C485.895203,346.088196 494.008789,300.597443 475.655518,251.990753 
	C464.943634,223.621552 443.578125,203.342880 418.614899,186.904785 
	C386.872162,166.002457 351.834564,153.529007 314.548248,147.049591 
	C307.668182,145.854004 300.718018,145.062195 293.800934,144.078705 
	C288.437988,143.316208 286.058685,140.884506 286.032410,135.557907 
	C285.950989,119.063019 285.951691,102.567253 286.028107,86.072342 
	C286.051727,80.970024 288.690369,78.062706 293.561615,78.049232 
	C324.046173,77.964890 354.531097,78.006630 385.429199,78.006630 
	C385.429199,82.575729 385.429199,86.960541 385.429199,91.980438 
	C357.327637,91.980438 329.122955,91.980438 300.216797,91.980438 
	C300.216797,101.358513 300.216797,110.125259 300.216797,118.892006 
	C300.216797,130.553772 300.270172,130.228989 311.625458,132.095215 
	C362.933716,140.527679 410.292297,158.214676 449.908020,193.042480 
	C475.594177,215.624283 493.339813,243.310516 497.627625,277.723602 
	C503.552399,325.274780 492.388641,368.650299 462.141541,406.423981 
	C435.152527,440.128845 399.737000,461.353516 359.291168,474.867218 
	C336.619537,482.442261 313.229034,486.603882 289.463379,488.781738 
	C288.499756,488.870026 287.520905,488.792938 286.275208,488.792938 
	C286.275208,480.558716 286.275208,472.455933 286.275208,463.796906 
	C311.591797,461.823273 336.572632,457.560333 361.114258,449.147430 
z"/>
<path fill="#333672" opacity="1.000000" stroke="none" 
	d="
M52.322872,234.410706 
	C41.624874,251.431244 35.228058,269.472473 35.145424,283.071533 
	C41.380203,283.071533 47.628540,283.071533 54.177658,283.071533 
	C54.177658,288.018188 54.177658,292.436798 54.177658,297.270203 
	C44.612827,297.270203 35.180000,297.609741 25.789604,297.125854 
	C21.147610,296.886658 19.804377,292.964172 20.012108,288.671844 
	C21.047050,267.287018 27.126343,247.480026 38.679405,229.419296 
	C54.926380,204.020630 78.044640,186.369614 103.908661,171.877029 
	C130.728256,156.848999 159.507233,146.590103 188.572601,136.950729 
	C199.904617,133.192535 210.942245,128.510178 221.988800,123.945869 
	C226.376678,122.132851 230.033508,119.116295 230.937973,113.967247 
	C232.129486,107.183876 229.993271,101.672920 223.369751,99.376099 
	C215.774292,96.742249 207.684937,94.782578 199.688431,94.199593 
	C177.887955,92.610229 156.567505,95.481949 135.833572,103.942215 
	C133.366028,100.166763 130.928802,96.437706 127.764282,91.595879 
	C134.850357,89.231361 141.406052,86.594177 148.192505,84.860115 
	C172.550766,78.636185 197.131729,76.983566 221.769730,83.081779 
	C231.763245,85.555290 240.581589,90.104820 244.065323,100.935661 
	C248.760300,115.532211 243.873718,129.284439 229.803314,135.854736 
	C215.548538,142.511093 200.634277,147.894470 185.706528,152.941147 
	C155.082840,163.294205 124.988373,174.730743 97.597641,192.231827 
	C80.056244,203.439758 64.420860,216.782288 52.322872,234.410706 
z"/>
<path fill="#F3D554" opacity="1.000000" stroke="none" 
	d="
M170.337952,395.744263 
	C146.516617,386.735809 124.880325,374.850525 107.326553,356.597412 
	C90.699722,339.308197 80.160934,319.260376 80.899971,294.500671 
	C80.929543,293.510193 81.015549,292.521423 81.117020,290.839935 
	C86.144096,291.924225 90.920616,292.900635 95.671608,293.988647 
	C114.828430,298.375671 133.764725,303.423431 151.518524,312.160706 
	C155.400528,314.071167 157.525116,315.902283 156.867676,321.141388 
	C155.525269,331.838837 163.654968,340.807526 174.734131,341.678497 
	C177.695068,341.911316 178.891037,342.927521 180.120193,345.470398 
	C184.075363,353.652863 190.773117,357.908722 199.935043,358.387085 
	C201.498016,358.468689 203.566559,359.107452 204.453812,360.234680 
	C210.351669,367.727997 217.862091,370.810699 226.107437,369.551361 
	C230.760101,373.368164 234.403580,377.407013 238.916367,379.820282 
	C246.226273,383.729431 253.866913,382.704254 260.633026,377.953217 
	C263.173889,376.169128 265.082428,376.100769 267.805847,377.303009 
	C275.498596,380.698975 283.791260,382.528809 291.421539,378.376556 
	C296.559296,375.580688 301.432312,373.892914 307.218628,373.224030 
	C313.765259,372.467224 318.635895,368.221527 322.081604,362.460480 
	C322.796387,361.265289 324.278473,359.846466 325.506165,359.746277 
	C337.735565,358.748413 345.688446,352.816650 348.364502,340.598389 
	C365.663025,340.252136 374.840546,327.957306 369.490570,313.348206 
	C377.636780,308.040405 424.086578,292.853058 440.833496,290.110901 
	C441.947205,299.139343 440.912476,307.876099 438.301147,316.491150 
	C431.431549,339.154663 416.769257,356.041199 398.235321,369.889252 
	C371.531525,389.841583 341.079193,401.042175 308.552704,406.693756 
	C261.746399,414.826569 215.683167,411.855896 170.337952,395.744263 
z"/>
<path fill="#FEFEFE" opacity="1.000000" stroke="none" 
	d="
M328.175232,288.818542 
	C337.820068,297.047546 347.216888,305.020020 356.552521,313.063507 
	C362.025177,317.778687 363.133606,322.767853 359.779755,326.841309 
	C355.576294,331.946655 348.185120,332.427704 342.906036,327.818420 
	C335.128052,321.027313 327.436005,314.137878 319.669647,307.333374 
	C318.173431,306.022461 316.638824,304.605499 314.864380,303.816956 
	C313.758759,303.325653 311.664948,303.426361 310.937134,304.167389 
	C310.183075,304.935181 310.110596,306.950012 310.531525,308.139252 
	C310.995697,309.450623 312.287170,310.516937 313.343933,311.563080 
	C320.328033,318.476929 327.378815,325.323730 334.341949,332.258514 
	C339.440826,337.336639 339.897736,341.510803 335.986969,345.695282 
	C331.137146,350.884583 323.652985,351.752930 319.042419,347.506866 
	C313.408112,342.317963 307.902618,336.989441 302.316681,331.747620 
	C301.227753,330.725769 300.162567,329.403351 298.841187,328.973450 
	C297.153687,328.424438 295.217133,328.640869 293.387939,328.527405 
	C293.631317,330.321991 293.246796,332.633667 294.225769,333.822388 
	C298.667694,339.216125 303.493927,344.293427 308.182648,349.483856 
	C308.517609,349.854675 308.858887,350.219757 309.197327,350.587433 
	C314.042633,355.851471 314.446930,358.186890 311.098999,361.572296 
	C306.974976,365.742371 300.545959,365.845978 296.379333,361.887604 
	C291.913666,357.645081 287.433868,353.414642 282.860321,349.289764 
	C280.902466,347.524048 278.365234,345.178070 276.129791,348.028595 
	C275.314484,349.068268 276.524780,352.598511 277.800995,354.206909 
	C281.610657,359.008148 285.910767,363.420197 290.019257,367.984222 
	C284.997437,372.406708 277.669067,372.234344 269.377777,367.494293 
	C271.618683,360.318542 271.252014,353.189148 266.860291,346.737915 
	C262.579224,340.449249 256.493835,337.056580 249.035538,336.688751 
	C248.697647,336.187439 248.388031,335.933533 248.352264,335.645630 
	C246.451324,320.344727 238.876373,314.030731 223.632385,314.908661 
	C222.338165,314.983215 220.619751,314.630280 219.734375,313.798767 
	C210.226929,304.869720 202.297836,303.481628 190.176086,308.947479 
	C182.121490,302.016235 173.527756,300.662140 164.236450,306.797119 
	C163.455719,307.312592 161.725967,307.127197 160.817825,306.605164 
	C140.509079,294.930176 118.111374,289.320557 95.615662,283.973236 
	C91.437439,282.980042 87.282860,281.887390 82.123802,280.591003 
	C84.291496,274.650299 85.934784,268.943939 88.401443,263.618958 
	C95.017006,249.337402 104.851944,237.452087 116.985863,227.530655 
	C118.328590,226.432755 121.204109,226.375259 123.077881,226.891327 
	C140.030777,231.560394 156.837769,236.778214 173.857010,241.179947 
	C183.683319,243.721359 193.680222,242.749390 203.390137,239.575241 
	C205.538635,238.872894 207.751984,238.368866 210.457336,238.604309 
	C205.909897,243.623734 201.370773,248.650726 196.813019,253.660767 
	C190.353729,260.761078 191.565155,267.548767 200.494949,271.342041 
	C211.167908,275.875824 221.931686,276.156464 231.905197,269.352783 
	C238.221024,265.044281 244.091110,260.088562 250.300720,255.617004 
	C266.398499,244.025040 273.497559,244.014664 289.056366,256.400391 
	C302.210754,266.872070 314.968292,277.842255 328.175232,288.818542 
z"/>
<path fill="#FDFDFE" opacity="1.000000" stroke="none" 
	d="
M328.967590,277.035614 
	C316.871368,267.076782 305.074371,257.310638 293.236298,247.594528 
	C291.310303,246.013763 289.212952,244.639771 287.177094,243.195114 
	C275.475922,234.891846 263.517639,235.033875 251.847824,242.881958 
	C243.991898,248.165131 236.627991,254.184387 229.090591,259.935425 
	C222.558624,264.919373 215.303833,266.268127 207.420532,264.336243 
	C205.747589,263.926239 204.207153,262.975616 201.858429,261.946747 
	C216.074203,247.452164 227.112549,230.512177 246.495834,223.384583 
	C266.201080,216.138565 285.645996,218.821213 304.185913,227.403091 
	C336.461151,242.342850 368.481018,241.597748 400.714264,227.621811 
	C402.327698,226.922256 405.206818,226.691895 406.309448,227.633408 
	C421.541138,240.639542 433.100067,256.210876 438.683075,275.745575 
	C438.999023,276.851044 439.079773,278.023743 439.328552,279.516571 
	C431.138824,281.747620 422.879120,283.531677 414.942749,286.257233 
	C398.621490,291.862244 382.444061,297.893250 366.281372,303.946167 
	C363.479279,304.995544 361.614410,305.017944 359.221771,302.910675 
	C349.352753,294.218597 339.262238,285.778015 328.967590,277.035614 
z"/>
<path fill="#F3D554" opacity="1.000000" stroke="none" 
	d="
M215.781982,226.757080 
	C211.003098,227.886841 206.544189,228.641937 202.303787,230.053482 
	C191.544144,233.635178 180.780319,233.899414 169.891830,230.899811 
	C156.302383,227.156143 142.714844,223.405563 129.107803,218.908447 
	C160.739792,196.631378 196.231232,185.703827 233.996536,182.178619 
	C291.474091,176.813354 346.003601,185.553055 395.939484,218.963531 
	C385.666443,223.711792 375.900085,226.455551 365.770782,227.984833 
	C346.083160,230.957214 327.430695,227.421387 309.382172,219.324356 
	C288.564728,209.985123 267.099701,206.369843 244.886032,213.975311 
	C239.905731,215.680450 234.973785,218.017181 230.633896,220.966980 
	C226.137573,224.023087 221.762634,226.645691 215.781982,226.757080 
z"/>
<path fill="#FCFCFD" opacity="1.000000" stroke="none" 
	d="
M229.620300,323.980042 
	C238.249069,326.804749 240.847290,331.814056 238.699432,340.735779 
	C237.037781,347.637817 237.504501,348.105103 244.309341,346.352936 
	C252.117416,344.342438 259.315704,348.563934 261.210907,356.264954 
	C263.046936,363.725555 258.243164,371.085724 250.488220,372.693878 
	C243.260651,374.192627 236.369080,369.332123 234.751160,361.594727 
	C233.507599,355.647644 232.750381,355.272064 227.840195,358.848022 
	C224.238419,361.471100 220.741287,361.075562 217.073837,359.237793 
	C213.159103,357.276123 211.061127,354.265106 210.966599,349.753632 
	C210.874817,345.373749 209.572311,344.689880 205.845886,346.669617 
	C196.421967,351.676086 186.792862,346.111328 186.319366,335.365112 
	C186.243378,333.640442 186.308701,331.909607 186.308701,331.434937 
	C180.921173,331.566956 176.204239,332.275391 171.731567,331.526001 
	C169.691437,331.184143 167.565567,328.240417 166.475098,325.993225 
	C164.213364,321.332458 166.371140,314.994507 171.248184,313.430176 
	C174.544342,312.372894 179.083878,312.336090 182.024841,313.857666 
	C184.778885,315.282532 186.160873,319.359436 188.475037,322.750366 
	C189.515854,321.618927 190.594360,320.486023 191.629227,319.314545 
	C195.660339,314.751404 200.876022,314.325745 206.304184,315.449738 
	C211.384323,316.501617 213.475967,320.201660 214.200409,325.135925 
	C214.845749,329.531311 216.232971,329.575806 220.203033,327.091095 
	C222.833099,325.445068 226.182281,324.947998 229.620300,323.980042 
z"/>
</svg>